<?xml version="1.0" standalone="no"?>
<!DOCTYPE svg PUBLIC "-//W3C//DTD SVG 1.0//EN" "http://www.w3.org/TR/2001/REC-SVG-20010904/DTD/svg10.dtd">
<svg xmlns="http://www.w3.org/2000/svg" xmlns:xlink="http://www.w3.org/1999/xlink" id="body_1" width="250" height="250">

<defs>
        <clipPath  id="1">

            <path clip-rule="evenodd" transform="matrix(0.35277778 0 -0 -0.35277778 -12.428467 3035.3958)"  d="M0 8640L8640 8640L8640 0L0 0L0 8640z" />        </clipPath>
</defs>

<g transform="matrix(0.08269252 0 0 0.08269252 0 0)">
	<g clip-path="url(#1)" >
		<g transform="matrix(0.35277778 0 -0 -0.35277778 301.85004 1741.65)">
		</g>
        <path transform="matrix(0.35277778 0 -0 -0.35277778 301.85004 1741.65)"  d="M0 0L571.118 65.253L558.508 176.17099L-21.791992 109.93799C -93.288994 101.85799 -130.997 125.97699 -137.97499 187.92499C -145.07599 249.74998 -114.22399 286.478 -42.84899 294.55798L-42.84899 294.55798L75.659 308.147L63.906 412.087L-58.153 398.13C -183.762 383.807 -250.729 306.433 -235.548 173.11C -219.51 32.933 -124.386 -14.201 0 0zM729.66 -471.219L176.171 -668.202C 111.775 -691.096 65.37501 -671.38605 40.89 -602.70404C 16.526999 -534.0231 40.034 -489.46002 104.429 -466.56604L104.429 -466.56604L657.796 -269.58203L620.333 -164.29602L66.96698 -361.40204C -53.13302 -404.00705 -92.67702 -514.19006 -50.07302 -633.92303C -7.101021 -754.635 93.16598 -815.11304 213.26596 -772.387L213.26596 -772.387L766.63293 -575.281zM993.36694 -970.718L872.5319 -785.609L226.3659 -1207.8569L347.2009 -1392.966C 427.0219 -1514.902 536.4719 -1519.3099 636.3709 -1453.934L636.3709 -1453.934L933.2549 -1260.011C 1033.1549 -1194.635 1073.1879 -1092.654 993.3669 -970.718zM1416.8379 -1452.832C 1310.5729 -1351.342 1193.1669 -1370.562 1106.7329 -1461.035L1106.7329 -1461.035L855.5149 -1724.129C 768.2249 -1815.459 754.5129 -1933.723 860.7789 -2035.214C 967.90186 -2137.563 1084.5739 -2117.606 1171.742 -2026.276L1171.742 -2026.276L1422.96 -1763.183C 1509.393 -1672.71 1523.9609 -1555.181 1416.838 -1452.832zM890.5279 3222.749L1165.6208 2826.822L1250.8289 2705.1301L1124.7289 2781.6472L709.5829 3029.8052L607.4789 2920.9683L1159.3759 2403.4722L1187.9009 2433.8342C 1198.9199 2447.7903 1210.1829 2461.6252 1221.5679 2475.214L1221.5679 2475.214L794.3009 2876.038L921.1349 2800.3782L1306.7769 2573.8901C 1331.2628 2600.945 1356.2368 2627.5122 1381.7019 2653.467L1381.7019 2653.467L1132.32 3025.397L1047.846 3146.354L1475.6029 2745.408C 1486.622 2755.815 1497.8849 2766.098 1509.148 2776.26L1509.148 2776.26L1544.5289 2813.967L992.63196 3331.463zM2176.983 3228.3801L2129.604 3311.2632L1917.807 3189.9382L1792.442 3408.7144L1945.353 3496.3713L1899.076 3577.1724L1746.166 3489.6384L1638.92 3676.9504L1850.717 3798.2744L1802.114 3882.9944L1498.13 3708.9033L1872.142 3055.7593C 1969.716 3119.2983 2071.575 3176.9612 2176.983 3228.3804zM2277.4949 -2018.5637C 2176.8608 -1975.7147 2083.939 -2031.7858 2039.7429 -2135.2358C 2019.298 -2183.1038 2007.0559 -2244.6858 2004.2399 -2305.286C 1896.0149 -2328.303 1812.5209 -2377.15 1772.4868 -2471.052C 1730.6168 -2568.992 1766.2438 -2677.462 1873.2438 -2723.127C 1928.4578 -2746.633 1994.2008 -2748.2249 2050.7617 -2729.493C 2073.1658 -2781.8918 2103.6497 -2821.436 2143.6826 -2838.452C 2211.7517 -2867.468 2272.3525 -2845.431 2304.6736 -2769.771L2304.6736 -2769.771L2335.0356 -2698.396L2262.6816 -2667.424L2233.5437 -2735.736C 2222.6477 -2761.2021 2208.3247 -2767.813 2186.6548 -2758.508C 2164.0059 -2748.8372 2145.6428 -2725.9421 2133.5217 -2694.356C 2221.5466 -2641.102 2307.3667 -2550.5059 2342.6257 -2471.052L2342.6257 -2471.052L2261.5798 -2436.404C 2239.1748 -2488.6812 2174.2898 -2562.9932 2107.1997 -2606.21C 2093.7336 -2544.997 2093.3657 -2452.9329 2098.6296 -2380.823C 2212.6086 -2365.153 2308.8357 -2325.608 2347.8896 -2233.912C 2386.2087 -2144.2961 2372.6206 -2059.209 2277.4946 -2018.5641zM3022.9487 3487.924L3023.3157 3487.924L3074.3677 3499.4321L2908.1128 4237.662L2762.5479 4204.852L2768.057 3722.737L2770.261 3574.2341L2708.803 3708.291L2504.596 4146.8223L2359.031 4114.012L2525.408 3375.7822L2577.93 3387.5342C 2578.1738 3387.6572 2578.296 3387.6572 2578.542 3387.7793C 2591.396 3391.8193 2604.373 3395.6152 2617.351 3399.5322L2617.351 3399.5322L2488.313 3971.8752L2550.996 3838.0632L2743.205 3433.6892C 2778.341 3442.3823 2813.7231 3450.339 2849.4712 3457.6853L2849.4712 3457.6853L2851.9192 3905.8872L2849.9602 4053.4111L2978.8752 3481.1902C 2993.5671 3483.6392 3008.2573 3485.8433 3022.9492 3487.924zM3307.5889 -2852.2869C 3303.794 -2924.0278 3273.7998 -2957.3289 3211.608 -2954.023C 3149.4148 -2950.595 3118.3188 -2914.234 3122.114 -2842.493L3122.114 -2842.493L3128.48 -2723.25L3023.928 -2717.74L3017.439 -2840.411C 3010.706 -2966.511 3076.082 -3045.4749 3209.894 -3052.576C 3350.8071 -3060.044 3412.999 -2973.979 3419.61 -2848.981L3419.61 -2848.981L3450.094 -2275.0469L3338.564 -2269.171zM3703.639 -2256.1929L3790.562 -3023.0708L3901.602 -3010.5837L3814.5571 -2243.7058zM3758.3628 4250.0273L3540.9338 4267.657L3479.5989 3516.3271C 3515.2249 3515.8372 3550.606 3514.613 3585.8638 3512.777L3585.8638 3512.777L3609.9817 3807.2112L3721.5127 3798.152C 3843.2036 3788.236 3902.7026 3850.673 3911.3958 3957.061L3911.3958 3957.061L3919.8438 4061.246C 3928.7798 4169.961 3880.0547 4240.1113 3758.3628 4250.0273zM4480.801 -2083.2046L4374.901 -2114.7905L4542.871 -2677.7065C 4562.336 -2743.3267 4540.3003 -2788.5024 4470.394 -2809.3145C 4400.611 -2830.2495 4357.395 -2804.4175 4337.807 -2738.9194L4337.807 -2738.9194L4169.838 -2176.0034L4062.837 -2207.9563L4230.807 -2770.8723C 4267.167 -2892.9324 4375.146 -2938.1062 4496.838 -2901.8684C 4619.632 -2865.2634 4685.13 -2768.3025 4648.769 -2646.1204zM4460.11 3669.3594L4659.543 3593.0884L4544.829 3292.2874C 4577.517 3278.4534 4609.96 3264.1284 4642.036 3249.0703L4642.036 3249.0703L4910.394 3952.1643L4811.106 3990.1172L4694.066 3683.3162L4494.5127 3759.5881L4611.552 4066.2651L4511.2837 4104.585L4242.4365 3400.267C 4276.9604 3390.228 4311.1177 3379.454 4345.0283 3368.069zM4854.0776 -2321.2017L4894.8467 -2399.3096L5113.6216 -2284.5967L5072.7305 -2206.6106zM5517.0166 3597.4966L5428.6235 3658.3416L5006.6206 3045.1086C 5036.4927 3025.3977 5065.9976 3005.0757 5095.1357 2984.3857zM5384.9175 -1529.5933L5297.1387 -1598.6412L5657.9287 -2057.8613C 5702.3687 -2114.3003 5701.635 -2158.9863 5652.6636 -2197.5513C 5603.572 -2235.9922 5556.3135 -2229.0142 5511.8735 -2172.5752L5511.8735 -2172.5752L5438.1733 -2078.6753L5355.9023 -2143.3152L5431.6846 -2239.9092C 5509.7925 -2339.1973 5610.7944 -2355.6033 5716.2026 -2272.8423C 5827.2437 -2185.6753 5817.3276 -2079.8982 5740.0767 -1981.5913zM5521.4233 2566.9116C 5601.6113 2479.3767 5720.6104 2468.9707 5812.7974 2553.4446C 5884.784 2619.4326 5898.1294 2699.1316 5876.826 2828.2915C 5855.4014 2955.8596 5860.788 3002.1375 5910.126 3047.4355C 5947.834 3081.9585 5994.478 3083.3057 6034.144 3039.9666C 6082.257 2987.4456 6065.975 2931.2524 6019.085 2888.1584L6019.085 2888.1584L5993.131 2864.4075L6061.935 2789.4824L6097.928 2822.4155C 6179.953 2897.7075 6186.809 3009.7275 6104.2944 3099.5886C 6017.9834 3193.7336 5907.0654 3188.5916 5827.4883 3115.7485C 5747.054 3042.0486 5752.931 2926.3545 5770.0703 2826.9456C 5789.7812 2716.3945 5778.641 2666.3215 5729.3022 2621.0234C 5686.575 2581.8474 5634.3003 2579.8894 5589.9814 2628.2476C 5544.9297 2677.3396 5550.5615 2730.1055 5607.6104 2782.2595L5607.6104 2782.2595L5633.5645 2806.1326L5561.7007 2884.3625L5523.26 2849.1045C 5441.9688 2774.5464 5437.439 2658.4866 5521.424 2566.9116zM5562.3125 -1348.6465L6135.1455 -1865.7755L6209.9487 -1782.8936L5637.239 -1265.7645zM6091.1943 -799.0755L6006.2305 -744.7185L5773.3765 -1109.4265L5858.3403 -1163.6615L5945.0186 -1027.8905L6510.2607 -1389.0475L6570.4937 -1294.9015L6005.13 -933.7445zM6769.1904 -411.5975C 6676.0244 -376.2155 6596.9375 -401.5585 6488.345 -482.35852C 6381.1 -562.3035 6336.292 -579.1985 6272.3853 -554.9575C 6223.659 -536.4715 6201.2554 -493.98953 6222.9253 -436.81653C 6249.247 -367.64554 6308.1343 -356.01553 6368.8564 -379.03052L6368.8564 -379.03052L6402.4023 -391.88553L6439.9863 -292.9655L6393.3423 -275.2135C 6287.198 -234.9365 6181.5454 -281.5805 6136.492 -400.3335C 6089.3584 -524.4735 6144.327 -624.4955 6247.288 -663.6725C 6351.228 -703.0935 6454.556 -642.9815 6537.928 -580.3005C 6630.3594 -509.7815 6681.289 -496.43747 6745.073 -520.67847C 6800.409 -541.61346 6825.7524 -588.9925 6801.6343 -652.77545C 6777.0264 -717.6625 6726.219 -737.2504 6652.519 -709.33746L6652.519 -709.33746L6618.974 -696.6045L6579.6753 -799.9325L6629.5034 -818.7865C 6734.6675 -858.6965 6843.0156 -808.1355 6888.9243 -687.17847C 6932.7524 -571.7295 6888.3125 -456.89447 6769.1904 -411.59747M6919.408 352.5885L6337.0264 430.0835L6322.4585 320.5135L6904.8394 243.01749C 6972.6636 233.95749 7004.8613 195.27048 6995.3125 123.03949C 6985.6416 50.807487 6944.3833 21.91449 6876.5596 30.852493L6876.5596 30.852493L6294.1777 108.348495L6279.486 -2.325508L6861.8677 -79.82051C 6988.213 -96.71651 7073.6655 -16.771511 7090.4375 109.20448C 7107.4546 236.28348 7045.8755 335.8155 6919.4087 352.5885" stroke="none" fill="#2A66B1" fill-rule="nonzero" />
		<g transform="matrix(0.35277778 0 -0 -0.35277778 2542.9836 2542.9836)">
		</g>
        <path transform="matrix(0.35277778 0 -0 -0.35277778 2542.9836 2542.9836)"  d="M0 0C -780.835 -781.079 -1819.254 -1211.162 -2923.539 -1211.162C -4027.8242 -1211.162 -5066.244 -781.079 -5847.078 0C -6627.913 780.835 -7057.996 1819.01 -7057.996 2923.539C -7057.996 4027.8242 -6627.913 5065.999 -5847.078 5847.078C -5066.244 6627.913 -4027.8242 7057.996 -2923.539 7057.996C -1819.254 7057.996 -780.835 6627.913 0 5847.078C 780.835 5065.999 1210.918 4027.824 1210.918 2923.539C 1210.918 1819.01 780.835 780.835 0 0M106.388 5953.222C -702.972 6762.582 -1778.977 7208.458 -2923.539 7208.458C -4068.102 7208.458 -5144.106 6762.582 -5953.466 5953.222C -6762.8257 5144.106 -7208.458 4067.8572 -7208.458 2923.539C -7208.458 1778.977 -6762.826 702.728 -5953.466 -106.38794C -5144.106 -915.7479 -4068.1018 -1361.3799 -2923.5388 -1361.3799C -1778.9768 -1361.3799 -702.9719 -915.7479 106.38818 -106.38794C 915.7492 702.7281 1361.3801 1778.977 1361.3801 2923.539C 1361.3801 4067.857 915.74915 5144.106 106.38818 5953.222" stroke="none" fill="#2A66B1" fill-rule="nonzero" />
		<g transform="matrix(0.35277778 0 -0 -0.35277778 301.85004 1741.65)">
		</g>
        <path transform="matrix(0.35277778 0 -0 -0.35277778 301.85004 1741.65)"  d="M0 0L571.118 65.253L558.508 176.17099L-21.791992 109.93799C -93.288994 101.85799 -130.997 125.97699 -137.97499 187.92499C -145.07599 249.74998 -114.22399 286.478 -42.84899 294.55798L-42.84899 294.55798L75.659 308.147L63.906 412.087L-58.153 398.13C -183.762 383.807 -250.729 306.433 -235.548 173.11C -219.51 32.933 -124.386 -14.201 0 0zM729.66 -471.219L176.171 -668.202C 111.775 -691.096 65.37501 -671.38605 40.89 -602.70404C 16.526999 -534.0231 40.034 -489.46002 104.429 -466.56604L104.429 -466.56604L657.796 -269.58203L620.333 -164.29602L66.96698 -361.40204C -53.13302 -404.00705 -92.67702 -514.19006 -50.07302 -633.92303C -7.101021 -754.635 93.16598 -815.11304 213.26596 -772.387L213.26596 -772.387L766.63293 -575.281zM993.36694 -970.718L872.5319 -785.609L226.3659 -1207.8569L347.2009 -1392.966C 427.0219 -1514.902 536.4719 -1519.3099 636.3709 -1453.934L636.3709 -1453.934L933.2549 -1260.011C 1033.1549 -1194.635 1073.1879 -1092.654 993.3669 -970.718zM1416.8379 -1452.832C 1310.5729 -1351.342 1193.1669 -1370.562 1106.7329 -1461.035L1106.7329 -1461.035L855.5149 -1724.129C 768.2249 -1815.459 754.5129 -1933.723 860.7789 -2035.214C 967.90186 -2137.563 1084.5739 -2117.606 1171.742 -2026.276L1171.742 -2026.276L1422.96 -1763.183C 1509.393 -1672.71 1523.9609 -1555.181 1416.838 -1452.832zM890.5279 3222.749L1165.6208 2826.822L1250.8289 2705.1301L1124.7289 2781.6472L709.5829 3029.8052L607.4789 2920.9683L1159.3759 2403.4722L1187.9009 2433.8342C 1198.9199 2447.7903 1210.1829 2461.6252 1221.5679 2475.214L1221.5679 2475.214L794.3009 2876.038L921.1349 2800.3782L1306.7769 2573.8901C 1331.2628 2600.945 1356.2368 2627.5122 1381.7019 2653.467L1381.7019 2653.467L1132.32 3025.397L1047.846 3146.354L1475.6029 2745.408C 1486.622 2755.815 1497.8849 2766.098 1509.148 2776.26L1509.148 2776.26L1544.5289 2813.967L992.63196 3331.463zM2176.983 3228.3801L2129.604 3311.2632L1917.807 3189.9382L1792.442 3408.7144L1945.353 3496.3713L1899.076 3577.1724L1746.166 3489.6384L1638.92 3676.9504L1850.717 3798.2744L1802.114 3882.9944L1498.13 3708.9033L1872.142 3055.7593C 1969.716 3119.2983 2071.575 3176.9612 2176.983 3228.3804zM2277.4949 -2018.5637C 2176.8608 -1975.7147 2083.939 -2031.7858 2039.7429 -2135.2358C 2019.298 -2183.1038 2007.0559 -2244.6858 2004.2399 -2305.286C 1896.0149 -2328.303 1812.5209 -2377.15 1772.4868 -2471.052C 1730.6168 -2568.992 1766.2438 -2677.462 1873.2438 -2723.127C 1928.4578 -2746.633 1994.2008 -2748.2249 2050.7617 -2729.493C 2073.1658 -2781.8918 2103.6497 -2821.436 2143.6826 -2838.452C 2211.7517 -2867.468 2272.3525 -2845.431 2304.6736 -2769.771L2304.6736 -2769.771L2335.0356 -2698.396L2262.6816 -2667.424L2233.5437 -2735.736C 2222.6477 -2761.2021 2208.3247 -2767.813 2186.6548 -2758.508C 2164.0059 -2748.8372 2145.6428 -2725.9421 2133.5217 -2694.356C 2221.5466 -2641.102 2307.3667 -2550.5059 2342.6257 -2471.052L2342.6257 -2471.052L2261.5798 -2436.404C 2239.1748 -2488.6812 2174.2898 -2562.9932 2107.1997 -2606.21C 2093.7336 -2544.997 2093.3657 -2452.9329 2098.6296 -2380.823C 2212.6086 -2365.153 2308.8357 -2325.608 2347.8896 -2233.912C 2386.2087 -2144.2961 2372.6206 -2059.209 2277.4946 -2018.5641zM3022.9487 3487.924L3023.3157 3487.924L3074.3677 3499.4321L2908.1128 4237.662L2762.5479 4204.852L2768.057 3722.737L2770.261 3574.2341L2708.803 3708.291L2504.596 4146.8223L2359.031 4114.012L2525.408 3375.7822L2577.93 3387.5342C 2578.1738 3387.6572 2578.296 3387.6572 2578.542 3387.7793C 2591.396 3391.8193 2604.373 3395.6152 2617.351 3399.5322L2617.351 3399.5322L2488.313 3971.8752L2550.996 3838.0632L2743.205 3433.6892C 2778.341 3442.3823 2813.7231 3450.339 2849.4712 3457.6853L2849.4712 3457.6853L2851.9192 3905.8872L2849.9602 4053.4111L2978.8752 3481.1902C 2993.5671 3483.6392 3008.2573 3485.8433 3022.9492 3487.924zM3307.5889 -2852.2869C 3303.794 -2924.0278 3273.7998 -2957.3289 3211.608 -2954.023C 3149.4148 -2950.595 3118.3188 -2914.234 3122.114 -2842.493L3122.114 -2842.493L3128.48 -2723.25L3023.928 -2717.74L3017.439 -2840.411C 3010.706 -2966.511 3076.082 -3045.4749 3209.894 -3052.576C 3350.8071 -3060.044 3412.999 -2973.979 3419.61 -2848.981L3419.61 -2848.981L3450.094 -2275.0469L3338.564 -2269.171zM3703.639 -2256.1929L3790.562 -3023.0708L3901.602 -3010.5837L3814.5571 -2243.7058zM3758.3628 4250.0273L3540.9338 4267.657L3479.5989 3516.3271C 3515.2249 3515.8372 3550.606 3514.613 3585.8638 3512.777L3585.8638 3512.777L3609.9817 3807.2112L3721.5127 3798.152C 3843.2036 3788.236 3902.7026 3850.673 3911.3958 3957.061L3911.3958 3957.061L3919.8438 4061.246C 3928.7798 4169.961 3880.0547 4240.1113 3758.3628 4250.0273zM4480.801 -2083.2046L4374.901 -2114.7905L4542.871 -2677.7065C 4562.336 -2743.3267 4540.3003 -2788.5024 4470.394 -2809.3145C 4400.611 -2830.2495 4357.395 -2804.4175 4337.807 -2738.9194L4337.807 -2738.9194L4169.838 -2176.0034L4062.837 -2207.9563L4230.807 -2770.8723C 4267.167 -2892.9324 4375.146 -2938.1062 4496.838 -2901.8684C 4619.632 -2865.2634 4685.13 -2768.3025 4648.769 -2646.1204zM4460.11 3669.3594L4659.543 3593.0884L4544.829 3292.2874C 4577.517 3278.4534 4609.96 3264.1284 4642.036 3249.0703L4642.036 3249.0703L4910.394 3952.1643L4811.106 3990.1172L4694.066 3683.3162L4494.5127 3759.5881L4611.552 4066.2651L4511.2837 4104.585L4242.4365 3400.267C 4276.9604 3390.228 4311.1177 3379.454 4345.0283 3368.069zM4854.0776 -2321.2017L4894.8467 -2399.3096L5113.6216 -2284.5967L5072.7305 -2206.6106zM5517.0166 3597.4966L5428.6235 3658.3416L5006.6206 3045.1086C 5036.4927 3025.3977 5065.9976 3005.0757 5095.1357 2984.3857zM5384.9175 -1529.5933L5297.1387 -1598.6412L5657.9287 -2057.8613C 5702.3687 -2114.3003 5701.635 -2158.9863 5652.6636 -2197.5513C 5603.572 -2235.9922 5556.3135 -2229.0142 5511.8735 -2172.5752L5511.8735 -2172.5752L5438.1733 -2078.6753L5355.9023 -2143.3152L5431.6846 -2239.9092C 5509.7925 -2339.1973 5610.7944 -2355.6033 5716.2026 -2272.8423C 5827.2437 -2185.6753 5817.3276 -2079.8982 5740.0767 -1981.5913zM5521.4233 2566.9116C 5601.6113 2479.3767 5720.6104 2468.9707 5812.7974 2553.4446C 5884.784 2619.4326 5898.1294 2699.1316 5876.826 2828.2915C 5855.4014 2955.8596 5860.788 3002.1375 5910.126 3047.4355C 5947.834 3081.9585 5994.478 3083.3057 6034.144 3039.9666C 6082.257 2987.4456 6065.975 2931.2524 6019.085 2888.1584L6019.085 2888.1584L5993.131 2864.4075L6061.935 2789.4824L6097.928 2822.4155C 6179.953 2897.7075 6186.809 3009.7275 6104.2944 3099.5886C 6017.9834 3193.7336 5907.0654 3188.5916 5827.4883 3115.7485C 5747.054 3042.0486 5752.931 2926.3545 5770.0703 2826.9456C 5789.7812 2716.3945 5778.641 2666.3215 5729.3022 2621.0234C 5686.575 2581.8474 5634.3003 2579.8894 5589.9814 2628.2476C 5544.9297 2677.3396 5550.5615 2730.1055 5607.6104 2782.2595L5607.6104 2782.2595L5633.5645 2806.1326L5561.7007 2884.3625L5523.26 2849.1045C 5441.9688 2774.5464 5437.439 2658.4866 5521.424 2566.9116zM5562.3125 -1348.6465L6135.1455 -1865.7755L6209.9487 -1782.8936L5637.239 -1265.7645zM6091.1943 -799.0755L6006.2305 -744.7185L5773.3765 -1109.4265L5858.3403 -1163.6615L5945.0186 -1027.8905L6510.2607 -1389.0475L6570.4937 -1294.9015L6005.13 -933.7445zM6769.1904 -411.5975C 6676.0244 -376.2155 6596.9375 -401.5585 6488.345 -482.35852C 6381.1 -562.3035 6336.292 -579.1985 6272.3853 -554.9575C 6223.659 -536.4715 6201.2554 -493.98953 6222.9253 -436.81653C 6249.247 -367.64554 6308.1343 -356.01553 6368.8564 -379.03052L6368.8564 -379.03052L6402.4023 -391.88553L6439.9863 -292.9655L6393.3423 -275.2135C 6287.198 -234.9365 6181.5454 -281.5805 6136.492 -400.3335C 6089.3584 -524.4735 6144.327 -624.4955 6247.288 -663.6725C 6351.228 -703.0935 6454.556 -642.9815 6537.928 -580.3005C 6630.3594 -509.7815 6681.289 -496.43747 6745.073 -520.67847C 6800.409 -541.61346 6825.7524 -588.9925 6801.6343 -652.77545C 6777.0264 -717.6625 6726.219 -737.2504 6652.519 -709.33746L6652.519 -709.33746L6618.974 -696.6045L6579.6753 -799.9325L6629.5034 -818.7865C 6734.6675 -858.6965 6843.0156 -808.1355 6888.9243 -687.17847C 6932.7524 -571.7295 6888.3125 -456.89447 6769.1904 -411.59747M6919.408 352.5885L6337.0264 430.0835L6322.4585 320.5135L6904.8394 243.01749C 6972.6636 233.95749 7004.8613 195.27048 6995.3125 123.03949C 6985.6416 50.807487 6944.3833 21.91449 6876.5596 30.852493L6876.5596 30.852493L6294.1777 108.348495L6279.486 -2.325508L6861.8677 -79.82051C 6988.213 -96.71651 7073.6655 -16.771511 7090.4375 109.20448C 7107.4546 236.28348 7045.8755 335.8155 6919.4087 352.5885" stroke="none" fill="#616262" fill-rule="nonzero" />
		<g transform="matrix(0.35277778 0 -0 -0.35277778 2722.5645 1769.8092)">
		</g>
        <path transform="matrix(0.35277778 0 -0 -0.35277778 2722.5645 1769.8092)"  d="M0 0L-582.382 77.495L-567.69 188.169L14.690979 110.673004C 82.515976 101.735 123.77298 130.628 133.44498 202.86C 142.99397 275.091 110.795975 313.778 42.971977 322.838L42.971977 322.838L-539.409 400.334L-524.841 509.90402L57.541016 432.40903C 184.008 415.637 245.587 316.104 228.57 189.025C 211.798 63.049 126.345 -16.896 0 0zM27.057 -607.357C -18.853 -728.314 -127.2 -778.876 -232.364 -738.966L-232.364 -738.966L-282.192 -720.111L-242.89398 -616.784L-209.34898 -629.51697C -135.64798 -657.43 -84.84098 -637.842 -60.232986 -572.95496C -36.114986 -509.17197 -61.457985 -461.79297 -116.79399 -440.85693C -180.57799 -416.61694 -231.508 -429.96094 -323.939 -500.47894C -407.312 -563.16095 -510.64 -623.272 -614.579 -583.8519C -717.54 -544.6749 -772.509 -444.65192 -725.375 -320.51294C -680.322 -201.75995 -574.669 -155.11494 -468.525 -195.39294L-468.525 -195.39294L-421.88098 -213.14494L-459.46497 -312.06393L-493.01096 -299.20993C -553.733 -276.19394 -612.61993 -287.82394 -638.94196 -356.99594C -660.61194 -414.16895 -638.20795 -456.64993 -589.48193 -475.13693C -525.57495 -499.37793 -480.76794 -482.48193 -373.5219 -402.53793C -264.9309 -321.73694 -185.84291 -296.39493 -92.67691 -331.77594C 26.444092 -377.07294 70.885086 -491.90894 27.05709 -607.35693zM-351.607 -1309.227L-916.85 -948.0691L-1003.527 -1083.8411L-1088.491 -1029.6051L-855.63696 -664.8971L-770.673 -719.2551L-856.738 -853.92413L-291.37396 -1215.0812zM-726.722 -1785.9551L-1299.5549 -1268.826L-1224.6289 -1185.943L-651.9189 -1703.072zM-1145.665 -2193.021C -1251.073 -2275.782 -1352.0751 -2259.377 -1430.1841 -2160.089L-1430.1841 -2160.089L-1505.9651 -2063.495L-1423.6941 -1998.8541L-1349.9941 -2092.7551C -1305.5542 -2149.193 -1258.2961 -2156.172 -1209.2041 -2117.7302C -1160.2332 -2079.1663 -1159.4991 -2034.4792 -1203.9391 -1978.0413L-1203.9391 -1978.0413L-1564.7291 -1518.8203L-1476.9501 -1449.7723L-1121.791 -1901.7714C -1044.54 -2000.0784 -1034.624 -2105.8542 -1145.665 -2193.0215zM-1967.021 -2319.488L-2007.79 -2241.381L-1789.1371 -2126.79L-1748.2461 -2204.7751zM-2365.03 -2822.048C -2486.722 -2858.2861 -2594.701 -2813.111 -2631.062 -2691.052L-2631.062 -2691.052L-2799.031 -2128.136L-2692.03 -2096.183L-2524.062 -2659.099C -2504.474 -2724.5972 -2461.257 -2750.4292 -2391.475 -2729.4941C -2321.568 -2708.6821 -2299.532 -2663.506 -2318.997 -2597.8862L-2318.997 -2597.8862L-2486.967 -2034.9702L-2381.0671 -2003.3842L-2213.1 -2566.3003C -2176.738 -2688.4812 -2242.236 -2785.4424 -2365.03 -2822.0483zM-3071.3071 -2943.25L-3158.229 -2176.372L-3047.312 -2163.885L-2960.267 -2930.763zM-3442.258 -2769.16C -3448.87 -2894.157 -3511.062 -2980.223 -3651.975 -2972.755C -3785.7861 -2965.6528 -3851.162 -2886.689 -3844.4292 -2760.5898L-3844.4292 -2760.5898L-3837.9402 -2637.919L-3733.3882 -2643.429L-3739.7542 -2762.6719C -3743.549 -2834.4128 -3712.4531 -2870.773 -3650.2603 -2874.202C -3588.0684 -2877.5078 -3558.0742 -2844.2068 -3554.2793 -2772.4658L-3554.2793 -2772.4658L-3523.3042 -2189.3499L-3411.7742 -2195.2258zM-4513.978 -2154.0908C -4553.032 -2245.7869 -4649.259 -2285.3318 -4763.238 -2301.0017C -4768.502 -2373.1106 -4768.134 -2465.1758 -4754.668 -2526.3887C -4687.579 -2483.1716 -4622.693 -2408.8586 -4600.289 -2356.5828L-4600.289 -2356.5828L-4519.242 -2391.2297C -4554.501 -2470.6848 -4640.3213 -2561.2798 -4728.346 -2614.5347C -4716.226 -2646.1206 -4697.8623 -2669.0156 -4675.2134 -2678.6868C -4653.5435 -2687.9907 -4639.22 -2681.3809 -4628.324 -2655.9148L-4628.324 -2655.9148L-4599.187 -2587.6028L-4526.833 -2618.5747L-4557.194 -2689.9497C -4589.5146 -2765.6086 -4650.1157 -2787.6458 -4718.185 -2758.6306C -4758.2183 -2741.6135 -4788.703 -2702.0696 -4811.106 -2649.6716C -4867.667 -2668.4026 -4933.41 -2666.8115 -4988.624 -2643.3057C -5095.625 -2597.6406 -5131.251 -2489.1707 -5089.381 -2391.2297C -5049.3477 -2297.3286 -4965.853 -2248.4807 -4857.628 -2225.4648C -4854.813 -2164.8638 -4842.57 -2103.283 -4822.125 -2055.4148C -4777.929 -1951.9648 -4685.007 -1895.8938 -4584.373 -1938.7428C -4489.248 -1979.3878 -4475.659 -2064.4749 -4513.978 -2154.0908zM-5438.908 -1683.3608L-5690.126 -1946.4548C -5777.294 -2037.7848 -5893.966 -2057.7407 -6001.089 -1955.3928C -6107.355 -1853.9009 -6093.644 -1735.6378 -6006.354 -1644.3079L-6006.354 -1644.3079L-5755.135 -1381.2139C -5668.7017 -1290.7399 -5551.295 -1271.5209 -5445.03 -1373.0109C -5337.9067 -1475.3589 -5352.4756 -1592.8889 -5438.9077 -1683.3608zM-6514.667 -1313.1448L-6635.502 -1128.0358L-5989.336 -705.7878L-5868.501 -890.89575C -5788.68 -1012.83276 -5828.713 -1114.8127 -5928.613 -1180.1887L-5928.613 -1180.1887L-6225.4966 -1374.1117C -6325.3955 -1439.4877 -6434.8457 -1435.0807 -6514.6665 -1313.1447zM-6911.941 -554.10175C -6954.545 -434.36874 -6915.001 -324.18573 -6794.901 -281.58075L-6794.901 -281.58075L-6241.5347 -84.47475L-6204.072 -189.76074L-6757.439 -386.74475C -6821.834 -409.63876 -6845.341 -454.20175 -6820.979 -522.88275C -6796.493 -591.5637 -6750.093 -611.27374 -6685.697 -588.38074L-6685.697 -588.38074L-6132.208 -391.39673L-6095.235 -495.45972L-6648.602 -692.5647C -6768.702 -735.2917 -6868.969 -674.8127 -6911.941 -554.1017zM-7097.417 252.93225C -7112.597 386.25427 -7045.63 463.62823 -6920.021 477.95123L-6920.021 477.95123L-6797.962 491.90823L-6786.209 387.96924L-6904.717 374.37924C -6976.092 366.29926 -7006.944 329.57123 -6999.843 267.74625C -6992.8647 205.79825 -6955.1567 181.68024 -6883.6606 189.76025L-6883.6606 189.76025L-6303.3594 255.99225L-6290.7495 145.07425L-6861.8677 79.82125C -6986.254 65.620255 -7081.3774 112.75425 -7097.4165 252.93225zM-6152.286 3109.6265L-5737.139 2861.4685L-5611.04 2784.9524L-5696.248 2906.6443L-5971.34 3302.5703L-5869.236 3411.2844L-5317.339 2893.7896L-5352.7197 2856.0815C -5363.983 2845.9194 -5375.2466 2835.6365 -5386.2646 2825.2295L-5386.2646 2825.2295L-5814.0215 3226.1765L-5729.5474 3105.2185L-5480.1655 2733.2886C -5505.6304 2707.3335 -5530.6045 2680.7676 -5555.0903 2653.7117L-5555.0903 2653.7117L-5940.7324 2880.2007L-6067.5664 2955.8596L-5640.2993 2555.0366C -5651.684 2541.4465 -5662.9473 2527.6116 -5673.9663 2513.6555L-5673.9663 2513.6555L-5702.491 2483.2935L-6254.388 3000.7896zM-5059.754 3962.8154L-5011.151 3878.0955L-5222.9478 3756.7715L-5115.7026 3569.4595L-4962.7915 3656.9944L-4916.5156 3576.1924L-5069.426 3488.5364L-4944.062 3269.7593L-4732.264 3391.0842L-4684.8853 3308.2012C -4790.2935 3256.7822 -4892.1523 3199.12 -4989.727 3135.581L-4989.727 3135.581L-5363.7383 3788.724zM-4357.272 4226.6436L-4153.065 3788.1125L-4091.607 3654.0566L-4093.811 3802.5596L-4099.32 4284.674L-3953.755 4317.484L-3787.5 3579.254L-3838.552 3567.7458L-3838.919 3567.7458C -3853.6108 3565.6648 -3868.301 3563.461 -3882.993 3561.013L-3882.993 3561.013L-4011.908 4133.233L-4009.949 3985.709L-4012.397 3537.507C -4048.146 3530.1611 -4083.5269 3522.204 -4118.663 3513.511L-4118.663 3513.511L-4310.873 3917.885L-4373.555 4051.697L-4244.518 3479.355C -4257.495 3475.437 -4270.472 3471.642 -4283.327 3467.602C -4283.5723 3467.479 -4283.6943 3467.479 -4283.938 3467.356L-4283.938 3467.356L-4336.46 3455.604L-4502.837 4193.834zM-3320.935 4347.4785L-3103.5051 4329.8496C -2981.8132 4319.9326 -2933.0881 4249.7827 -2942.0242 4141.0674L-2942.0242 4141.0674L-2950.4731 4036.8823C -2959.165 3930.4944 -3018.664 3868.0574 -3140.3552 3877.9744L-3140.3552 3877.9744L-3251.8862 3887.0334L-3276.0042 3592.5984C -3311.2622 3594.4343 -3346.644 3595.6594 -3382.2703 3596.1484zM-2350.584 4184.4067L-2250.316 4146.087L-2367.355 3839.41L-2167.802 3763.139L-2050.762 4069.939L-1951.475 4031.986L-2219.832 3328.892C -2251.908 3343.9512 -2284.352 3358.2751 -2317.039 3372.1091L-2317.039 3372.1091L-2202.325 3672.9111L-2401.758 3749.1821L-2516.839 3447.891C -2550.75 3459.2761 -2584.9072 3470.05 -2619.4321 3480.089zM-1433.2439 3738.1628L-1344.8519 3677.3179L-1766.7319 3064.2068C -1795.8699 3084.8967 -1825.3749 3105.2188 -1855.247 3124.9307zM-1300.1669 2964.1848L-1228.3029 2885.9539L-1254.2568 2862.0808C -1311.3069 2809.9268 -1316.9379 2757.1619 -1271.8859 2708.0688C -1227.5669 2659.711 -1175.2919 2661.669 -1132.5648 2700.846C -1083.2268 2746.144 -1072.0858 2796.216 -1091.7969 2906.7668C -1108.9369 3006.1768 -1114.8129 3121.8699 -1034.3789 3195.5698C -954.8019 3268.4138 -843.8839 3273.556 -757.5729 3179.41C -675.0589 3089.5488 -681.9139 2977.5288 -763.9389 2902.2368L-763.9389 2902.2368L-799.9329 2869.305L-868.7359 2944.23L-842.7819 2967.98C -795.89294 3011.074 -779.6099 3067.268 -827.72394 3119.788C -867.38995 3163.1272 -914.03296 3161.781 -951.74097 3127.257C -1001.079 3081.959 -1006.46594 3035.6812 -985.04095 2908.113C -963.738 2778.954 -977.08295 2699.2542 -1049.07 2633.266C -1141.257 2548.7932 -1260.256 2559.1992 -1340.444 2646.7332C -1424.429 2738.308 -1419.8989 2854.3682 -1338.6079 2928.9263zM-844.496 731.863C -844.496 -694.15704 -2004.606 -1854.269 -3430.628 -1854.269C -4856.649 -1854.269 -6016.76 -694.157 -6016.76 731.86304C -6016.76 2157.6401 -4856.649 3317.628 -3430.6277 3317.628C -2004.6057 3317.628 -844.4956 2157.64 -844.4956 731.86304M-614.9456 3547.3C -1367.0106 4299.242 -2367.1106 4713.6543 -3430.6274 4713.6543C -4494.1445 4713.6543 -5494.244 4299.242 -6246.3096 3547.3003C -6998.2505 2795.2363 -7412.4185 1795.3802 -7412.4185 731.8633C -7412.4185 -331.8977 -6998.2505 -1331.7537 -6246.3096 -2083.8176C -5494.2446 -2835.7598 -4494.1445 -3250.1726 -3430.6277 -3250.1726C -2367.1108 -3250.1726 -1367.0107 -2835.7595 -614.9458 -2083.8176C 136.99518 -1331.7537 551.1642 -331.89758 551.1642 731.8633C 551.1642 1795.3802 136.99518 2795.2363 -614.9458 3547.3003" stroke="none" fill="#616262" fill-rule="nonzero" />
		<g transform="matrix(0.35277778 0 -0 -0.35277778 2368.1538 1511.5267)">
		</g>
        <path transform="matrix(0.35277778 0 -0 -0.35277778 2368.1538 1511.5267)"  d="M0 0C 0 -8.302 0 -16.337 -0.269 -24.374C -1.8759999 -23.837 -3.482 -23.034 -5.09 -22.231C -6.1600003 -21.695002 -7.499 -21.159 -8.571 -20.624C -10.179 -19.82 -11.785 -19.017 -13.393 -18.481C -94.547 20.624998 -182.93501 54.639 -277.749 83.834C -750.217 228.734 -1330.087 230.073 -1911.0281 87.584C -2491.9712 -55.173996 -3005.686 -324.62097 -3357.358 -672.007C -3507.615 -820.39 -3621.18 -975.736 -3695.638 -1132.689C -3695.906 -1133.225 -3696.442 -1134.0299 -3696.71 -1134.833C -3697.781 -1136.708 -3698.584 -1138.85 -3699.656 -1140.9921C -3699.924 -1141.796 -3700.191 -1142.333 -3700.727 -1143.135C -3859.823 -1089.033 -4009.01 -1023.947 -4144.536 -949.22003C -4603.344 -696.11206 -4855.916 -359.17206 -4855.916 -0.8040161C -4855.916 7.231984 -4855.916 15.534985 -4855.647 23.569984C -4854.041 22.765984 -4852.434 22.230984 -4850.826 21.426985C -4849.7563 20.890985 -4848.683 20.355986 -4847.344 19.551985C -4845.7373 19.017984 -4844.1304 18.212984 -4842.7925 17.409985C -4761.3696 -21.426014 -4672.9814 -55.71002 -4578.1675 -84.638016C -4340.0586 -157.75702 -4074.3625 -194.45102 -3795.0076 -194.45102C -3520.4727 -194.45102 -3232.8135 -159.09602 -2944.6196 -88.38602C -2363.9456 54.10399 -1850.2306 324.08398 -1498.5596 671.204C -1348.3005 819.586 -1234.7366 974.93396 -1160.2786 1131.887C -1160.0106 1132.689 -1159.4746 1133.226 -1159.2056 1134.028C -1158.1356 1135.903 -1157.3306 1138.0459 -1156.2606 1140.189C -1155.9916 1140.992 -1155.7246 1141.528 -1155.1886 1142.333C -996.0936 1088.229 -846.9066 1023.145 -711.3806 948.416C -252.572 695.31 0 358.369 0 0" stroke="none" fill="#616262" fill-rule="nonzero" />
		<g transform="matrix(0.35277778 0 -0 -0.35277778 1692.6622 1973.8542)">
		</g>
        <path transform="matrix(0.35277778 0 -0 -0.35277778 1692.6622 1973.8542)"  d="M0 0C -13.66 -1.606 -27.319 -2.945 -40.979 -4.553C -40.712 -4.553 -40.176 -4.82 -39.64 -4.82C -25.979 -3.2140002 -12.320999 -1.6060002 1.3390007 0L1.3390007 0L0 0z" stroke="none" fill="#FFFFFF" fill-rule="nonzero" />
		<g transform="matrix(0.35277778 0 -0 -0.35277778 1344.3815 1047.7817)">
		</g>
        <path transform="matrix(0.35277778 0 -0 -0.35277778 1344.3815 1047.7817)"  d="M0 0L-0.268 0C -13.9279995 -1.607 -27.855999 -3.214 -41.515003 -4.821L-41.515003 -4.821L-39.105003 -4.821C -25.445004 -3.2140002 -11.517004 -1.6070001 2.140995 -0.26800013C 1.339 0 0.534 0 0 0" stroke="none" fill="#FFFFFF" fill-rule="nonzero" />
		<g transform="matrix(0.35277778 0 -0 -0.35277778 1344.3815 1047.7817)">
		</g>
        <path transform="matrix(0.35277778 0 -0 -0.35277778 1344.3815 1047.7817)"  d="M0 0L-0.268 0C -13.9279995 -1.607 -27.855999 -3.214 -41.515003 -4.821L-41.515003 -4.821L-39.105003 -4.821C -25.445004 -3.2140002 -11.517004 -1.6070001 2.140995 -0.26800013C 1.339 0 0.534 0 0 0" stroke="none" fill="#FFFFFF" fill-rule="nonzero" />
		<g transform="matrix(0.35277778 0 -0 -0.35277778 1616.8832 1236.4736)">
		</g>
        <path transform="matrix(0.35277778 0 -0 -0.35277778 1616.8832 1236.4736)"  d="M0 0C 0 -169.006 -129.901 -308.283 -295.157 -322.745C -299.17502 -323.013 -303.46002 -323.55 -307.479 -323.55C -312.835 -323.81598 -318.459 -324.08398 -323.816 -324.08398C -502.466 -324.08398 -647.902 -178.64798 -647.902 3.0517578E-05C -647.902 178.64803 -502.46597 323.81802 -323.81598 323.81802C -301.58698 323.81802 -279.62396 321.674 -258.731 317.39C -253.64299 316.31702 -248.55399 314.979 -243.46498 313.90802C -103.653 278.017 0 151.062 0 0" stroke="none" fill="#616262" fill-rule="nonzero" />
		<g transform="matrix(0.35277778 0 -0 -0.35277778 1926.33 1097.4823)">
		</g>
        <path transform="matrix(0.35277778 0 -0 -0.35277778 1926.33 1097.4823)"  d="M0 0C -0.269 -0.536 -0.535 -1.339 -0.803 -2.143L-0.803 -2.143L-3.749 -8.3029995C -4.285 -9.106999 -4.553 -9.641999 -4.821 -10.445999C -74.459 -152.668 -178.916 -294.354 -317.12003 -430.685C -655.937 -765.21497 -1153.046 -1025.5549 -1716.578 -1164.027C -2279.843 -1302.231 -2840.9648 -1301.429 -3296.291 -1161.884C -3399.408 -1130.279 -3494.2231 -1092.2471 -3579.9321 -1048.589C -3581.2712 -1048.053 -3582.611 -1047.25 -3583.9502 -1046.714C -3585.2893 -1045.91 -3586.6272 -1045.375 -3587.6982 -1044.571C -3589.3071 -1044.036 -3590.6462 -1043.232 -3591.9841 -1042.4281C -3537.8801 -733.8781 -3294.1482 -447.8271 -2892.122 -226.3241C -2874.177 -216.1461 -2855.696 -206.50409 -2837.215 -196.86209C -2824.091 -190.16708 -2810.966 -183.20209 -2797.574 -176.7741L-2797.574 -176.7741L-2803.199 -180.79109L-2803.199 -181.0591L-2803.467 -181.0591C -2813.914 -189.0941 -2824.3582 -197.3971 -2834.5361 -205.7001L-2834.5361 -205.7001L-2834.8042 -205.7001C -2836.4111 -207.0411 -2838.2861 -208.3791 -2839.8933 -209.9861L-2839.8933 -209.9861L-2840.1614 -209.9861C -2863.4634 -229.2701 -2885.9624 -249.0891 -2906.8533 -269.4461C -3074.2522 -431.7561 -3144.6934 -609.6011 -3105.3223 -770.8401C -3065.6812 -931.8121 -2920.7812 -1056.8921 -2697.4033 -1123.3151C -2472.9543 -1189.473 -2196.5454 -1188.6681 -1919.0632 -1120.6381C -1665.6892 -1058.499 -1439.0972 -947.077 -1273.8413 -804.32007C -1270.0913 -804.85504 -1266.6093 -805.39105 -1262.8593 -805.92706C -1242.7712 -808.87305 -1222.1482 -810.48004 -1200.9883 -810.48004C -971.4503 -810.48004 -784.49927 -623.79706 -784.49927 -393.99103C -784.49927 -164.45303 -971.45026 22.497986 -1200.9883 22.497986C -1217.0603 22.497986 -1232.5933 21.694986 -1248.1283 19.819986C -1252.6813 19.283987 -1257.2354 18.748987 -1261.7883 17.944986C -1313.2123 47.139984 -1371.8694 71.78098 -1437.4904 91.06399C -1503.1113 110.61799 -1573.0173 124.277985 -1646.1364 132.04399L-1646.1364 132.04399L-1646.4043 132.04399C -1646.9403 132.04399 -1647.7433 132.04399 -1648.2793 132.312C -1661.6713 133.651 -1675.0634 134.98999 -1688.7233 136.062C -1675.0632 137.66899 -1661.1353 139.276 -1647.4773 140.61499C -1648.2793 140.883 -1649.0833 140.883 -1649.6183 140.883C -1494.5403 157.75699 -1334.9072 166.595 -1173.1343 166.595C -756.108 166.595 -354.887 108.743 0 0" stroke="none" fill="#2A66B1" fill-rule="nonzero" />
		<g transform="matrix(0.35277778 0 -0 -0.35277778 1692.6622 1973.8542)">
		</g>
        <path transform="matrix(0.35277778 0 -0 -0.35277778 1692.6622 1973.8542)"  d="M0 0C -13.66 -1.606 -27.319 -2.945 -40.979 -4.553C -40.712 -4.553 -40.176 -4.82 -39.64 -4.82C -25.979 -3.2140002 -12.320999 -1.6060002 1.3390007 0L1.3390007 0L0 0z" stroke="none" fill="#FFFFFF" fill-rule="nonzero" />
		<g transform="matrix(0.35277778 0 -0 -0.35277778 2364.0906 1558.1091)">
		</g>
        <path transform="matrix(0.35277778 0 -0 -0.35277778 2364.0906 1558.1091)"  d="M0 0C -54.104 -308.551 -297.836 -594.334 -699.862 -816.104C -718.611 -826.55 -737.627 -836.728 -756.912 -846.638C -769.768 -853.333 -782.62396 -859.763 -795.74896 -866.459C -793.87396 -864.852 -791.99896 -863.51196 -790.12396 -862.173C -779.41 -853.86896 -768.69696 -845.566 -758.51996 -837.264C -756.64496 -835.925 -755.037 -834.586 -753.162 -832.979C -579.604 -691.023 -475.94897 -522.553 -475.94897 -360.243C -475.94897 -330.514 -479.43198 -301.05002 -486.662 -271.85602C -526.30396 -110.61702 -671.203 14.462982 -894.58203 80.619995C -1005.197 113.562996 -1128.672 129.901 -1258.573 129.901C -1391.957 129.901 -1532.306 112.76 -1672.921 78.209C -1926.295 16.07 -2152.887 -95.351 -2318.144 -238.10799C -2321.894 -237.57199 -2325.375 -237.03798 -2329.126 -236.50198C -2349.2139 -233.55598 -2369.836 -231.94899 -2390.996 -231.94899C -2620.5342 -231.94899 -2807.485 -418.632 -2807.485 -648.437C -2807.485 -878.244 -2620.5342 -1064.927 -2390.996 -1064.927C -2375.193 -1064.927 -2359.392 -1064.124 -2344.124 -1062.249C -2339.57 -1061.713 -2334.749 -1061.177 -2330.196 -1060.374C -2278.771 -1089.567 -2220.115 -1113.941 -2154.4941 -1133.493C -2088.873 -1153.045 -2018.9681 -1166.7051 -1946.1151 -1174.474L-1946.1151 -1174.474L-1945.8491 -1174.474C -1945.3131 -1174.474 -1944.7761 -1174.739 -1944.2411 -1174.739C -1930.581 -1176.08 -1916.9221 -1177.4191 -1903.2621 -1178.49C -1916.9221 -1180.097 -1930.581 -1181.436 -1944.2411 -1183.043C -1943.9741 -1183.043 -1943.4381 -1183.3109 -1942.9011 -1183.3109C -2097.9802 -1200.1849 -2257.0771 -1209.023 -2418.851 -1209.023C -2835.876 -1209.023 -3237.0981 -1151.1709 -3591.9841 -1042.428C -3591.9841 -1041.893 -3591.4492 -1041.089 -3591.1812 -1040.286C -3590.1091 -1038.1431 -3589.038 -1036.2681 -3587.967 -1034.124C -3587.699 -1033.321 -3587.4312 -1032.785 -3587.163 -1031.982C -3517.5251 -889.76105 -3413.068 -748.07306 -3274.864 -611.744C -2936.047 -277.21402 -2438.938 -16.874023 -1875.406 121.599C -1595.2471 190.433 -1315.623 224.717 -1049.3921 224.717C -780.2141 224.717 -524.6961 189.631 -295.6931 119.454994C -192.576 87.851 -97.762 49.818 -12.053 6.429C -10.714 5.624 -9.373 5.09 -8.034 4.285C -6.695 3.751 -5.356 2.946 -4.284 2.41C -2.678 1.607 -1.339 0.803 0 0" stroke="none" fill="#2A66B1" fill-rule="nonzero" />
		<g transform="matrix(0.35277778 0 -0 -0.35277778 1634.9307 1786.8634)">
		</g>
        <path transform="matrix(0.35277778 0 -0 -0.35277778 1634.9307 1786.8634)"  d="M0 0C 0 -178.648 -145.437 -323.816 -324.086 -323.816C -346.315 -323.816 -368.278 -321.67502 -389.16998 -317.389C -394.25998 -316.31702 -399.34897 -314.979 -404.43698 -313.906C -544.24896 -278.017 -647.902 -150.794 -647.902 0C -647.902 169.006 -518.001 308.282 -352.74496 322.745C -348.72696 323.014 -344.43997 323.55 -340.42395 323.55C -335.06595 323.817 -329.44095 324.086 -324.08594 324.086C -145.437 324.086 0 178.647 0 0" stroke="none" fill="#616262" fill-rule="nonzero" />
		<g transform="matrix(0.35277778 0 -0 -0.35277778 846.7256 748.9448)">
		</g>
        <path transform="matrix(0.35277778 0 -0 -0.35277778 846.7256 748.9448)"  d="M0 0L-35.381 -37.708C -46.645 -47.869 -57.908 -58.152 -68.925995 -68.559L-68.925995 -68.559L-496.684 332.38702L-412.20898 211.43002L-162.82698 -160.49997C -188.29198 -186.45596 -213.26698 -213.02197 -237.75198 -240.07797L-237.75198 -240.07797L-623.395 -13.588974L-750.228 62.070023L-322.96103 -338.753C -334.34604 -352.343 -345.60904 -366.177 -356.62802 -380.133L-356.62802 -380.133L-385.153 -410.496L-937.05 107L-834.947 215.838L-419.8 -32.32L-293.701 -108.837L-378.909 12.855003L-654.001 408.782L-551.897 517.49603L0 0z" stroke="none" fill="#FFFFFF" fill-rule="nonzero" />
		<g transform="matrix(0.35277778 0 -0 -0.35277778 1069.8413 602.74927)">
		</g>
        <path transform="matrix(0.35277778 0 -0 -0.35277778 1069.8413 602.74927)"  d="M0 0C -105.409 -51.419 -207.268 -109.082 -304.842 -172.621L-304.842 -172.621L-678.854 480.52298L-374.86902 654.614L-326.26602 569.89404L-538.063 448.57004L-430.818 261.25806L-277.908 348.79205L-231.63098 267.99106L-384.541 180.33406L-259.177 -38.44194L-47.378998 82.88306L0 0z" stroke="none" fill="#FFFFFF" fill-rule="nonzero" />
		<g transform="matrix(0.35277778 0 -0 -0.35277778 1386.4186 507.12817)">
		</g>
        <path transform="matrix(0.35277778 0 -0 -0.35277778 1386.4186 507.12817)"  d="M0 0L-51.051 -11.508L-51.419 -11.508C -66.11 -13.589001 -80.800995 -15.793 -95.492004 -18.242L-95.492004 -18.242L-224.407 553.979L-222.448 406.45502L-224.897 -41.74698C -260.64502 -49.09298 -296.026 -57.04998 -331.163 -65.74298L-331.163 -65.74298L-523.372 338.63L-586.054 472.443L-457.017 -99.9C -469.995 -103.817 -482.972 -107.613 -495.826 -111.653C -496.07098 -111.775 -496.194 -111.775 -496.438 -111.898L-496.438 -111.898L-548.959 -123.65L-715.336 614.57996L-569.771 647.38995L-365.564 208.85895L-304.107 74.80194L-306.311 223.30495L-311.82 705.4199L-166.255 738.2299L0 0z" stroke="none" fill="#FFFFFF" fill-rule="nonzero" />
		<g transform="matrix(0.35277778 0 -0 -0.35277778 1647.0226 304.65698)">
		</g>
        <path transform="matrix(0.35277778 0 -0 -0.35277778 1647.0226 304.65698)"  d="M0 0L-9.06 -110.918C -12.978001 -159.644 -33.423 -187.557 -83.005 -183.639L-83.005 -183.639L-195.638 -174.45801L-173.84601 92.92099L-61.213005 83.61699C -11.631 79.7 4.162 49.828 0 0M-54.725 176.661L-272.154 194.291L-333.48898 -557.04C -297.86298 -557.529 -262.481 -558.753 -227.22398 -560.589L-227.22398 -560.589L-203.10498 -266.155L-91.57498 -275.214C 30.11602 -285.13 89.61502 -222.693 98.308014 -116.30499L98.308014 -116.30499L106.75601 -12.119995C 115.692 96.595 66.967 166.745 -54.725 176.661" stroke="none" fill="#FFFFFF" fill-rule="nonzero" />
		<g transform="matrix(0.35277778 0 -0 -0.35277778 2034.1277 347.4143)">
		</g>
        <path transform="matrix(0.35277778 0 -0 -0.35277778 2034.1277 347.4143)"  d="M0 0L-268.357 -703.094C -300.434 -688.036 -332.87698 -673.711 -365.564 -659.877L-365.564 -659.877L-250.851 -359.07602L-450.28302 -282.80502L-565.364 -584.09503C -599.275 -572.71 -633.433 -561.93604 -667.95703 -551.89703L-667.95703 -551.89703L-399.10904 152.42096L-298.84204 114.10096L-415.88104 -192.57605L-216.32704 -268.84805L-99.28704 37.95294L0 0z" stroke="none" fill="#FFFFFF" fill-rule="nonzero" />
		<g transform="matrix(0.35277778 0 -0 -0.35277778 2248.1309 472.53345)">
		</g>
        <path transform="matrix(0.35277778 0 -0 -0.35277778 2248.1309 472.53345)"  d="M0 0L-421.881 -613.111C -451.019 -592.421 -480.523 -572.099 -510.396 -552.387L-510.396 -552.387L-88.393 60.845L0 0z" stroke="none" fill="#FFFFFF" fill-rule="nonzero" />
		<g transform="matrix(0.35277778 0 -0 -0.35277778 2455.3096 648.1843)">
		</g>
        <path transform="matrix(0.35277778 0 -0 -0.35277778 2455.3096 648.1843)"  d="M0 0C -86.311 94.146 -197.229 89.003 -276.806 16.16C -357.24 -57.539997 -351.363 -173.233 -334.224 -272.643C -314.513 -383.194 -325.65298 -433.267 -374.992 -478.56403C -417.719 -517.741 -469.99402 -519.69904 -514.312 -471.34103C -559.365 -422.24902 -553.73303 -369.48303 -496.68402 -317.32904L-496.68402 -317.32904L-470.72903 -293.45605L-542.59406 -215.22604L-581.03503 -250.48404C -662.32605 -325.04205 -666.85504 -441.10205 -582.87103 -532.677C -502.68304 -620.211 -383.68402 -630.618 -291.49704 -546.144C -219.51004 -480.15598 -206.16504 -400.45697 -227.46805 -271.297C -248.89305 -143.729 -243.50604 -97.451004 -194.16805 -52.153C -156.46005 -17.629002 -109.81605 -16.283 -70.15005 -59.622C -22.037048 -112.143005 -38.319046 -168.336 -85.209045 -211.43L-85.209045 -211.43L-111.16305 -235.181L-42.359047 -310.105L-6.366047 -277.173C 75.659 -201.881 82.515 -89.861 0 0" stroke="none" fill="#FFFFFF" fill-rule="nonzero" />
		<g transform="matrix(0.35277778 0 -0 -0.35277778 498.87933 1679.5009)">
		</g>
        <path transform="matrix(0.35277778 0 -0 -0.35277778 498.87933 1679.5009)"  d="M0 0L-580.301 -66.232C -651.797 -74.313 -689.505 -50.194 -696.48303 11.753998C -703.58405 73.578995 -672.73206 110.307 -601.35706 118.387L-601.35706 118.387L-482.84906 131.977L-494.60306 235.91602L-616.6611 221.95901C -742.27106 207.63602 -809.23706 130.26202 -794.05707 -3.0609894C -778.01904 -143.23799 -682.89404 -190.372 -558.50806 -176.17099L-558.50806 -176.17099L12.608948 -110.91799L0 0z" stroke="none" fill="#FFFFFF" fill-rule="nonzero" />
		<g transform="matrix(0.35277778 0 -0 -0.35277778 559.2579 1907.8855)">
		</g>
        <path transform="matrix(0.35277778 0 -0 -0.35277778 559.2579 1907.8855)"  d="M0 0L-553.489 -196.983C -617.885 -219.877 -664.28503 -200.167 -688.771 -131.485C -713.133 -62.805 -689.626 -18.240997 -625.231 4.651993L-625.231 4.651993L-71.86401 201.637L-109.32701 306.923L-662.69305 109.81601C -782.793 67.212006 -822.33704 -42.971985 -779.73303 -162.70398C -736.76105 -283.416 -636.494 -343.89496 -516.39404 -301.16797L-516.39404 -301.16797L36.97296 -104.06297L0 0z" stroke="none" fill="#FFFFFF" fill-rule="nonzero" />
		<g transform="matrix(0.35277778 0 -0 -0.35277778 608.01874 2154.6257)">
		</g>
        <path transform="matrix(0.35277778 0 -0 -0.35277778 608.01874 2154.6257)"  d="M0 0L-288.069 -188.292C -348.303 -227.591 -400.211 -222.203 -440.123 -161.23502L-440.123 -161.23502L-496.072 -75.53702L-18.731995 236.28299L37.217007 150.706C 77.128 89.738 61.213 39.911 0 0M125.487 199.922L4.652 385.03L-641.514 -37.218L-520.679 -222.326C -440.85703 -344.263 -331.40802 -348.67 -231.509 -283.294L-231.509 -283.294L65.375 -89.371C 165.275 -23.995003 205.308 77.985 125.487 199.922" stroke="none" fill="#FFFFFF" fill-rule="nonzero" />
		<g transform="matrix(0.35277778 0 -0 -0.35277778 777.925 2334.3362)">
		</g>
        <path transform="matrix(0.35277778 0 -0 -0.35277778 777.925 2334.3362)"  d="M0 0L-264.073 -276.561C -309.616 -324.307 -368.013 -334.346 -420.656 -284.029C -473.422 -233.58899 -465.22 -175.68199 -419.677 -127.93599L-419.677 -127.93599L-155.603 148.62602C -109.937996 196.37202 -52.520996 207.14603 0.1230011 156.82802C 52.889 106.389 45.543 47.747 0 0M67.334 227.224C -38.931 328.714 -156.337 309.494 -242.77101 219.021L-242.77101 219.021L-493.989 -44.073C -581.279 -135.403 -594.991 -253.66699 -488.725 -355.158C -381.602 -457.507 -264.93 -437.551 -177.762 -346.22098L-177.762 -346.22098L73.456 -83.127C 159.889 7.3460007 174.45801 124.875 67.334 227.22401" stroke="none" fill="#FFFFFF" fill-rule="nonzero" />
		<g transform="matrix(0.35277778 0 -0 -0.35277778 984.11053 2675.4448)">
		</g>
        <path transform="matrix(0.35277778 0 -0 -0.35277778 984.11053 2675.4448)"  d="M0 0C -64.886 27.668 -87.779 79.087 -58.274 148.38C -35.871 200.534 11.264004 233.344 65.98801 247.79001C 63.295 163.316 67.825 69.415 86.188 -1.47C 63.172 -10.528 29.138 -12.365 0 0M198.208 473.667C 224.65298 535.492 263.951 558.998 306.188 541.001C 341.815 525.698 345.242 491.541 327.00098 448.93698C 311.08496 411.597 263.58398 366.422 168.09198 349.159C 174.82498 397.885 184.98698 442.815 198.20798 473.667M413.92297 413.065C 452.24298 502.682 438.65396 587.769 343.52798 628.413C 242.894 671.263 149.972 615.191 105.776 511.741C 85.332 463.873 73.089 402.292 70.273 341.691C -37.952 318.675 -121.446 269.827 -161.48 175.926C -203.34999 77.98499 -167.72299 -30.484009 -60.722992 -76.149C -5.507992 -99.655 60.23401 -101.247 116.79501 -82.516C 139.199 -134.914 169.68402 -174.45801 209.716 -191.475C 277.785 -220.49 338.386 -198.453 370.707 -122.79401L370.707 -122.79401L401.069 -51.419006L328.715 -20.446007L299.578 -88.75901C 288.682 -114.225006 274.358 -120.83501 252.688 -111.530014C 230.04001 -101.85902 211.676 -78.96501 199.556 -47.379013C 287.58 5.876 373.4 96.472 408.659 175.926L408.659 175.926L327.613 210.573C 305.208 158.297 240.323 83.984 173.233 40.768C 159.767 101.98 159.399 194.045 164.664 266.154C 278.643 281.824 374.86902 321.369 413.923 413.065" stroke="none" fill="#FFFFFF" fill-rule="nonzero" />
		<g transform="matrix(0.35277778 0 -0 -0.35277778 1479.6211 2542.163)">
		</g>
        <path transform="matrix(0.35277778 0 -0 -0.35277778 1479.6211 2542.163)"  d="M0 0L-30.975 -583.116C -34.77 -654.85706 -64.764 -688.158 -126.956 -684.853C -189.149 -681.424 -220.245 -645.06305 -216.45001 -573.322L-216.45001 -573.322L-210.08401 -454.07904L-314.63602 -448.56903L-321.12503 -571.24005C -327.85803 -697.34 -262.48203 -776.3041 -128.67003 -783.405C 12.242966 -790.87305 74.43497 -704.80804 81.045975 -579.81104L81.045975 -579.81104L111.53 -5.876L0 0z" stroke="none" fill="#FFFFFF" fill-rule="nonzero" />
		<g transform="matrix(0.35277778 0 -0 -0.35277778 1647.5408 2533.1797)">
		</g>
        <path transform="matrix(0.35277778 0 -0 -0.35277778 1647.5408 2533.1797)"  d="M0 0L-110.918 -12.487L-23.995003 -779.365L87.045 -766.878L0 0z" stroke="none" fill="#FFFFFF" fill-rule="nonzero" />
		<g transform="matrix(0.35277778 0 -0 -0.35277778 1941.8322 2675.1426)">
		</g>
        <path transform="matrix(0.35277778 0 -0 -0.35277778 1941.8322 2675.1426)"  d="M0 0L-167.968 562.916L-273.867 531.33L-105.897 -31.585999C -86.433 -97.206 -108.469 -142.38199 -178.375 -163.194C -248.157 -184.129 -291.374 -158.297 -310.962 -92.799L-310.962 -92.799L-478.931 470.117L-585.932 438.164L-417.962 -124.752014C -381.602 -246.81201 -273.622 -291.98602 -151.931 -255.74802C -29.137 -219.143 36.361 -122.182 0 0" stroke="none" fill="#FFFFFF" fill-rule="nonzero" />
		<g transform="matrix(0.35277778 0 -0 -0.35277778 2091.3967 2520.0935)">
		</g>
        <path transform="matrix(0.35277778 0 -0 -0.35277778 2091.3967 2520.0935)"  d="M0 0L-218.653 -114.591L-177.885 -192.698L40.891006 -77.985L0 0z" stroke="none" fill="#FFFFFF" fill-rule="nonzero" />
		<g transform="matrix(0.35277778 0 -0 -0.35277778 2326.8215 2440.7114)">
		</g>
        <path transform="matrix(0.35277778 0 -0 -0.35277778 2326.8215 2440.7114)"  d="M0 0L-355.159 451.998L-442.938 382.94998L-82.14798 -76.27103C -37.70798 -132.70903 -38.44198 -177.39603 -87.41298 -215.96002C -136.50497 -254.40103 -183.76297 -247.42302 -228.20297 -190.98402L-228.20297 -190.98402L-301.90295 -97.08402L-384.17395 -161.72502L-308.39294 -258.31802C -230.28394 -357.60602 -129.28195 -374.01202 -23.873932 -291.25104C 87.167 -204.084 77.251 -98.308 0 0" stroke="none" fill="#FFFFFF" fill-rule="nonzero" />
		<g transform="matrix(0.35277778 0 -0 -0.35277778 2290.5427 2188.1836)">
		</g>
        <path transform="matrix(0.35277778 0 -0 -0.35277778 2290.5427 2188.1836)"  d="M0 0L-74.926 -82.883L497.907 -600.012L572.71 -517.129L0 0z" stroke="none" fill="#FFFFFF" fill-rule="nonzero" />
		<g transform="matrix(0.35277778 0 -0 -0.35277778 2420.3262 2071.0544)">
		</g>
        <path transform="matrix(0.35277778 0 -0 -0.35277778 2420.3262 2071.0544)"  d="M0 0L86.065 134.669L1.102005 189.026L-231.75299 -175.682L-146.789 -229.917L-60.111 -94.14601L505.131 -455.30304L565.364 -361.15704L0 0z" stroke="none" fill="#FFFFFF" fill-rule="nonzero" />
		<g transform="matrix(0.35277778 0 -0 -0.35277778 2689.87 1886.8525)">
		</g>
        <path transform="matrix(0.35277778 0 -0 -0.35277778 2689.87 1886.8525)"  d="M0 0C -93.166 35.382 -172.254 10.039 -280.846 -70.762C -388.091 -150.706 -432.898 -167.60199 -496.80603 -143.36C -545.531 -124.874 -567.93604 -82.393005 -546.26605 -25.220001C -519.94305 43.951996 -461.05707 55.582 -400.33405 32.565998L-400.33405 32.565998L-366.78806 19.711998L-329.20404 118.631996L-375.84903 136.384C -481.99203 176.66101 -587.646 130.017 -632.698 11.264C -679.832 -112.876 -624.863 -212.89801 -521.902 -252.07498C -417.96298 -291.49597 -314.63498 -231.38498 -231.26297 -168.70297C -138.83096 -98.184975 -87.90097 -84.84097 -24.116974 -109.08097C 31.219025 -130.01697 56.562027 -177.39597 32.443027 -241.17899C 7.836027 -306.065 -42.971973 -325.65298 -116.67198 -297.74L-116.67198 -297.74L-150.21698 -285.008L-189.51598 -388.335L-139.68698 -407.189C -34.523 -447.1 73.824 -396.538 119.733 -275.581C 163.562 -160.133 119.121 -45.297 0 0" stroke="none" fill="#FFFFFF" fill-rule="nonzero" />
		<g transform="matrix(0.35277778 0 -0 -0.35277778 2742.8638 1617.2649)">
		</g>
        <path transform="matrix(0.35277778 0 -0 -0.35277778 2742.8638 1617.2649)"  d="M0 0L-582.382 77.495L-596.95 -32.074997L-14.569031 -109.571C 53.254967 -118.631 85.45297 -157.318 75.90397 -229.549C 66.23197 -301.781 24.974968 -330.674 -42.85003 -321.736L-42.85003 -321.736L-625.231 -244.23999L-639.92303 -354.914L-57.541016 -432.409C 68.803986 -449.305 154.25699 -369.36 171.02899 -243.384C 188.046 -116.305 126.467 -16.772 0 0" stroke="none" fill="#FFFFFF" fill-rule="nonzero" />
		<g transform="matrix(0.35277778 0 -0 -0.35277778 1481.6766 1187.7831)">
		</g>
        <path transform="matrix(0.35277778 0 -0 -0.35277778 1481.6766 1187.7831)"  d="M0 0C 0 -26.319 -20.229 -48.009 -45.964 -50.261C -46.59 -50.303 -47.257 -50.386 -47.883 -50.386C -48.717 -50.428 -49.593 -50.469 -50.427 -50.469C -78.248 -50.469 -100.897 -27.821001 -100.897 0C -100.897 27.82 -78.248 50.427 -50.427002 50.427C -46.966003 50.427 -43.545002 50.093998 -40.292 49.426C -39.5 49.259 -38.707 49.051 -37.915 48.884C -16.142 43.295 0 23.524 0 0" stroke="none" fill="#FFFFFF" fill-rule="nonzero" />
		<g transform="matrix(0.35277778 0 -0 -0.35277778 1501.6952 1738.2935)">
		</g>
        <path transform="matrix(0.35277778 0 -0 -0.35277778 1501.6952 1738.2935)"  d="M0 0C 0 -26.318 -20.229 -48.008 -45.964 -50.261C -46.59 -50.302002 -47.257 -50.386 -47.883 -50.386C -48.717 -50.427002 -49.593 -50.469 -50.428 -50.469C -78.249 -50.469 -100.897 -27.820002 -100.897 0C -100.897 27.821 -78.249 50.428 -50.428 50.428C -46.966003 50.428 -43.545002 50.095 -40.292 49.427002C -39.5 49.260002 -38.707 49.052002 -37.915 48.885002C -16.142 43.296 0 23.525 0 0" stroke="none" fill="#FFFFFF" fill-rule="nonzero" />
	</g>
</g>
</svg>